<svg width="32" height="32" viewBox="0 0 32 32" fill="none" xmlns="http://www.w3.org/2000/svg">
<path d="M6.76 6.00002L7.21 6.89002L7.76 8.00002H12V13H4V6.00002H6.76ZM7.38 4.00002H3C2.73478 4.00002 2.48043 4.10538 2.29289 4.29292C2.10536 4.48045 2 4.73481 2 5.00002V14C2 14.2652 2.10536 14.5196 2.29289 14.7071C2.48043 14.8947 2.73478 15 3 15H13C13.2652 15 13.5196 14.8947 13.7071 14.7071C13.8946 14.5196 14 14.2652 14 14V7.00002C14 6.73481 13.8946 6.48045 13.7071 6.29292C13.5196 6.10538 13.2652 6.00002 13 6.00002H9L8.28 4.55002C8.19614 4.38359 8.06743 4.2439 7.90841 4.14672C7.74938 4.04954 7.56636 3.99873 7.38 4.00002ZM22.76 6.00002L23.21 6.89002L23.76 8.00002H28V13H20V6.00002H22.76ZM23.38 4.00002H19C18.7348 4.00002 18.4804 4.10538 18.2929 4.29292C18.1054 4.48045 18 4.73481 18 5.00002V14C18 14.2652 18.1054 14.5196 18.2929 14.7071C18.4804 14.8947 18.7348 15 19 15H29C29.2652 15 29.5196 14.8947 29.7071 14.7071C29.8946 14.5196 30 14.2652 30 14V7.00002C30 6.73481 29.8946 6.48045 29.7071 6.29292C29.5196 6.10538 29.2652 6.00002 29 6.00002H25L24.28 4.55002C24.1961 4.38359 24.0674 4.2439 23.9084 4.14672C23.7494 4.04954 23.5664 3.99873 23.38 4.00002ZM6.76 19L7.21 19.89L7.76 21H12V26H4V19H6.76ZM7.38 17H3C2.73478 17 2.48043 17.1054 2.29289 17.2929C2.10536 17.4805 2 17.7348 2 18V27C2 27.2652 2.10536 27.5196 2.29289 27.7071C2.48043 27.8947 2.73478 28 3 28H13C13.2652 28 13.5196 27.8947 13.7071 27.7071C13.8946 27.5196 14 27.2652 14 27V20C14 19.7348 13.8946 19.4805 13.7071 19.2929C13.5196 19.1054 13.2652 19 13 19H9L8.28 17.55C8.19614 17.3836 8.06743 17.2439 7.90841 17.1467C7.74938 17.0495 7.56636 16.9987 7.38 17ZM22.76 19L23.21 19.89L23.76 21H28V26H20V19H22.76ZM23.38 17H19C18.7348 17 18.4804 17.1054 18.2929 17.2929C18.1054 17.4805 18 17.7348 18 18V27C18 27.2652 18.1054 27.5196 18.2929 27.7071C18.4804 27.8947 18.7348 28 19 28H29C29.2652 28 29.5196 27.8947 29.7071 27.7071C29.8946 27.5196 30 27.2652 30 27V20C30 19.7348 29.8946 19.4805 29.7071 19.2929C29.5196 19.1054 29.2652 19 29 19H25L24.28 17.55C24.1961 17.3836 24.0674 17.2439 23.9084 17.1467C23.7494 17.0495 23.5664 16.9987 23.38 17Z" fill="#2C2C2C"/>
</svg>
