<svg width="34" height="34" viewBox="0 0 34 34" fill="none" xmlns="http://www.w3.org/2000/svg">
<path d="M17.1416 26.2792L17 26.4208L16.8441 26.2792C10.115 20.1733 5.66665 16.1358 5.66665 12.0417C5.66665 9.20833 7.79165 7.08333 10.625 7.08333C12.8066 7.08333 14.9316 8.5 15.6825 10.4267H18.3175C19.0683 8.5 21.1933 7.08333 23.375 7.08333C26.2083 7.08333 28.3333 9.20833 28.3333 12.0417C28.3333 16.1358 23.885 20.1733 17.1416 26.2792ZM23.375 4.25C20.91 4.25 18.5441 5.3975 17 7.19667C15.4558 5.3975 13.09 4.25 10.625 4.25C6.26165 4.25 2.83331 7.66417 2.83331 12.0417C2.83331 17.3825 7.64998 21.76 14.9458 28.3758L17 30.2458L19.0541 28.3758C26.35 21.76 31.1666 17.3825 31.1666 12.0417C31.1666 7.66417 27.7383 4.25 23.375 4.25Z" fill="#2C2C2C"/>
</svg>
